<svg width="63" height="45" viewBox="0 0 63 45" fill="none" xmlns="http://www.w3.org/2000/svg">
<path d="M27.5387 17.5893C27.5387 22.2321 26.8345 26.2202 25.426 29.5536C24.0176 33.006 22.1984 35.8036 19.9683 37.9464C17.7383 40.2083 15.2148 41.8155 12.3979 42.7679C9.46361 43.8393 6.58802 44.375 3.77112 44.375L3.77112 38.125C6.82276 38.125 9.69835 37.0536 12.3979 34.9107C14.98 32.8869 16.5059 30.0893 16.9753 26.5179C16.6232 26.6369 16.2124 26.756 15.743 26.875C15.3908 26.9941 14.98 27.1131 14.5106 27.2321C13.9237 27.3512 13.2782 27.4107 12.5739 27.4107C9.05281 27.4107 6.11854 26.0417 3.77112 23.3036C1.4237 20.6845 0.249992 17.5893 0.249992 14.0179C0.249992 10.4464 1.48239 7.29167 3.94718 4.55357C6.29459 1.93453 9.46361 0.625002 13.4542 0.625002C17.9143 0.625002 21.3767 2.29167 23.8415 5.625C26.3063 9.07738 27.5387 13.0655 27.5387 17.5893ZM62.75 17.5893C62.75 22.2321 62.0458 26.2202 60.6373 29.5536C59.2289 33.0059 57.4096 35.8036 55.1796 37.9464C52.9495 40.2083 50.4261 41.8155 47.6092 42.7679C44.6749 43.8393 41.7993 44.375 38.9824 44.375L38.9824 38.125C42.034 38.125 44.9096 37.0536 47.6092 34.9107C50.1913 32.8869 51.7171 30.0893 52.1866 26.5179C51.8345 26.6369 51.4237 26.7559 50.9542 26.875C50.6021 26.994 50.1913 27.1131 49.7218 27.2321C49.135 27.3512 48.4894 27.4107 47.7852 27.4107C44.2641 27.4107 41.3298 26.0417 38.9824 23.3036C36.635 20.6845 35.4613 17.5893 35.4613 14.0179C35.4613 10.4464 36.6937 7.29167 39.1584 4.55357C41.5059 1.93452 44.6749 0.624999 48.6655 0.624999C53.1256 0.624998 56.588 2.29166 59.0528 5.625C61.5176 9.07738 62.75 13.0655 62.75 17.5893Z" fill="#EDE9FE"/>
</svg>
